<mxfile host="Electron" agent="Mozilla/5.0 (X11; Linux x86_64) AppleWebKit/537.36 (KHTML, like Gecko) draw.io/27.0.5 Chrome/134.0.6998.205 Electron/35.3.0 Safari/537.36" version="27.0.5">
  <diagram name="Page-1" id="8shbXdmnbSAg-wJcK1Yy">
    <mxGraphModel dx="1106" dy="703" grid="1" gridSize="10" guides="1" tooltips="1" connect="1" arrows="1" fold="1" page="1" pageScale="1" pageWidth="850" pageHeight="1100" math="0" shadow="0">
      <root>
        <mxCell id="0" />
        <mxCell id="1" parent="0" />
        <mxCell id="rS0zVbvvCvptxuWbCiOQ-1" value="" style="rounded=0;whiteSpace=wrap;html=1;fillColor=none;dashed=1;strokeColor=#C3C3C3;" vertex="1" parent="1">
          <mxGeometry x="40" y="40" width="160" height="720" as="geometry" />
        </mxCell>
        <mxCell id="rS0zVbvvCvptxuWbCiOQ-2" value="Sources" style="rounded=0;whiteSpace=wrap;html=1;fontSize=24;strokeColor=none;" vertex="1" parent="1">
          <mxGeometry x="60" y="30" width="80" height="20" as="geometry" />
        </mxCell>
        <mxCell id="rS0zVbvvCvptxuWbCiOQ-3" value="" style="rounded=0;whiteSpace=wrap;html=1;fillColor=none;dashed=1;strokeColor=#C3C3C3;" vertex="1" parent="1">
          <mxGeometry x="280" y="40" width="960" height="720" as="geometry" />
        </mxCell>
        <mxCell id="rS0zVbvvCvptxuWbCiOQ-4" value="Data WareHouse" style="rounded=0;whiteSpace=wrap;html=1;fontSize=24;strokeColor=none;" vertex="1" parent="1">
          <mxGeometry x="640" y="20" width="190" height="40" as="geometry" />
        </mxCell>
        <mxCell id="rS0zVbvvCvptxuWbCiOQ-5" value="" style="rounded=0;whiteSpace=wrap;html=1;fillColor=none;dashed=1;strokeColor=#C3C3C3;" vertex="1" parent="1">
          <mxGeometry x="1320" y="40" width="160" height="720" as="geometry" />
        </mxCell>
        <mxCell id="rS0zVbvvCvptxuWbCiOQ-6" value="Consume&lt;div&gt;&lt;br&gt;&lt;/div&gt;" style="rounded=0;whiteSpace=wrap;html=1;fontSize=24;strokeColor=none;" vertex="1" parent="1">
          <mxGeometry x="1360" y="20" width="80" height="70" as="geometry" />
        </mxCell>
        <mxCell id="rS0zVbvvCvptxuWbCiOQ-8" value="Bronze Layer" style="rounded=0;whiteSpace=wrap;html=1;fontSize=20;fillColor=#ffe6cc;strokeColor=#d79b00;" vertex="1" parent="1">
          <mxGeometry x="320" y="90" width="220" height="40" as="geometry" />
        </mxCell>
        <mxCell id="rS0zVbvvCvptxuWbCiOQ-9" value="" style="rounded=0;whiteSpace=wrap;html=1;fontSize=20;fillColor=none;strokeColor=#d79b00;" vertex="1" parent="1">
          <mxGeometry x="320" y="150" width="240" height="570" as="geometry" />
        </mxCell>
        <mxCell id="rS0zVbvvCvptxuWbCiOQ-10" value="Silver Layer" style="rounded=0;whiteSpace=wrap;html=1;fontSize=20;fillColor=#f5f5f5;strokeColor=light-dark(#cabebe, #959595);fontColor=#333333;" vertex="1" parent="1">
          <mxGeometry x="660" y="95" width="220" height="40" as="geometry" />
        </mxCell>
        <mxCell id="rS0zVbvvCvptxuWbCiOQ-11" value="" style="rounded=0;whiteSpace=wrap;html=1;fontSize=20;fillColor=none;strokeColor=light-dark(#aea2a2, #959595);fontColor=#333333;" vertex="1" parent="1">
          <mxGeometry x="660" y="155" width="200" height="565" as="geometry" />
        </mxCell>
        <mxCell id="rS0zVbvvCvptxuWbCiOQ-12" value="" style="rounded=0;whiteSpace=wrap;html=1;fontSize=20;fillColor=none;strokeColor=#d6b656;" vertex="1" parent="1">
          <mxGeometry x="980" y="150" width="230" height="570" as="geometry" />
        </mxCell>
        <mxCell id="rS0zVbvvCvptxuWbCiOQ-13" value="Gold Layer" style="rounded=0;whiteSpace=wrap;html=1;fontSize=20;fillColor=#fff2cc;strokeColor=#d6b656;" vertex="1" parent="1">
          <mxGeometry x="980" y="90" width="220" height="40" as="geometry" />
        </mxCell>
        <mxCell id="rS0zVbvvCvptxuWbCiOQ-14" value="CRM" style="image;aspect=fixed;html=1;points=[];align=center;fontSize=12;image=img/lib/azure2/general/Folder_Blank.svg;" vertex="1" parent="1">
          <mxGeometry x="50" y="150" width="69" height="56.00000000000001" as="geometry" />
        </mxCell>
        <mxCell id="rS0zVbvvCvptxuWbCiOQ-15" value="" style="sketch=0;pointerEvents=1;shadow=0;dashed=0;html=1;strokeColor=none;fillColor=#505050;labelPosition=center;verticalLabelPosition=bottom;verticalAlign=top;outlineConnect=0;align=center;shape=mxgraph.office.services.excel_services;" vertex="1" parent="1">
          <mxGeometry x="100" y="180" width="30" height="20" as="geometry" />
        </mxCell>
        <mxCell id="rS0zVbvvCvptxuWbCiOQ-16" value="ERP" style="image;aspect=fixed;html=1;points=[];align=center;fontSize=12;image=img/lib/azure2/general/Folder_Blank.svg;" vertex="1" parent="1">
          <mxGeometry x="50" y="270" width="69" height="56.00000000000001" as="geometry" />
        </mxCell>
        <mxCell id="rS0zVbvvCvptxuWbCiOQ-17" value="" style="sketch=0;pointerEvents=1;shadow=0;dashed=0;html=1;strokeColor=none;fillColor=#505050;labelPosition=center;verticalLabelPosition=bottom;verticalAlign=top;outlineConnect=0;align=center;shape=mxgraph.office.services.excel_services;" vertex="1" parent="1">
          <mxGeometry x="100" y="300" width="30" height="20" as="geometry" />
        </mxCell>
        <mxCell id="rS0zVbvvCvptxuWbCiOQ-18" value="" style="endArrow=none;html=1;rounded=0;exitX=0.083;exitY=0.643;exitDx=0;exitDy=0;exitPerimeter=0;entryX=0.917;entryY=0.643;entryDx=0;entryDy=0;entryPerimeter=0;strokeColor=light-dark(#ababab, #ededed);" edge="1" parent="1" source="rS0zVbvvCvptxuWbCiOQ-1" target="rS0zVbvvCvptxuWbCiOQ-1">
          <mxGeometry width="50" height="50" relative="1" as="geometry">
            <mxPoint x="70" y="440" as="sourcePoint" />
            <mxPoint x="120" y="390" as="targetPoint" />
          </mxGeometry>
        </mxCell>
        <mxCell id="rS0zVbvvCvptxuWbCiOQ-20" value="Object Type: CSV Files" style="text;html=1;align=center;verticalAlign=middle;whiteSpace=wrap;rounded=0;fontSize=10;fillColor=none;" vertex="1" parent="1">
          <mxGeometry x="50" y="420" width="110" height="30" as="geometry" />
        </mxCell>
        <mxCell id="rS0zVbvvCvptxuWbCiOQ-21" value="In&lt;span style=&quot;background-color: transparent; color: light-dark(rgb(0, 0, 0), rgb(255, 255, 255));&quot;&gt;terface: Files in Folder&lt;/span&gt;" style="text;html=1;align=center;verticalAlign=middle;whiteSpace=wrap;rounded=0;fontSize=10;fillColor=none;" vertex="1" parent="1">
          <mxGeometry x="50" y="470" width="110" height="30" as="geometry" />
        </mxCell>
        <mxCell id="rS0zVbvvCvptxuWbCiOQ-23" value="" style="strokeWidth=2;html=1;shape=mxgraph.flowchart.database;whiteSpace=wrap;fillColor=#ffe6cc;strokeColor=#d79b00;" vertex="1" parent="1">
          <mxGeometry x="395" y="256" width="60" height="84" as="geometry" />
        </mxCell>
        <mxCell id="rS0zVbvvCvptxuWbCiOQ-24" value="" style="strokeWidth=2;html=1;shape=mxgraph.flowchart.database;whiteSpace=wrap;fillColor=#f5f5f5;strokeColor=#666666;fontColor=#333333;" vertex="1" parent="1">
          <mxGeometry x="730" y="270" width="60" height="84" as="geometry" />
        </mxCell>
        <mxCell id="rS0zVbvvCvptxuWbCiOQ-25" value="" style="strokeWidth=2;html=1;shape=mxgraph.flowchart.database;whiteSpace=wrap;fillColor=#fff2cc;strokeColor=#d6b656;" vertex="1" parent="1">
          <mxGeometry x="1060" y="268" width="60" height="84" as="geometry" />
        </mxCell>
        <mxCell id="rS0zVbvvCvptxuWbCiOQ-26" value="" style="shape=singleArrow;whiteSpace=wrap;html=1;fillColor=#dae8fc;strokeColor=#6c8ebf;" vertex="1" parent="1">
          <mxGeometry x="200" y="228" width="120" height="60" as="geometry" />
        </mxCell>
        <mxCell id="rS0zVbvvCvptxuWbCiOQ-28" value="" style="shape=singleArrow;whiteSpace=wrap;html=1;fillColor=#dae8fc;strokeColor=#6c8ebf;" vertex="1" parent="1">
          <mxGeometry x="560" y="240" width="120" height="60" as="geometry" />
        </mxCell>
        <mxCell id="rS0zVbvvCvptxuWbCiOQ-29" value="" style="shape=singleArrow;whiteSpace=wrap;html=1;fillColor=#dae8fc;strokeColor=#6c8ebf;" vertex="1" parent="1">
          <mxGeometry x="860" y="228" width="120" height="60" as="geometry" />
        </mxCell>
        <mxCell id="rS0zVbvvCvptxuWbCiOQ-30" value="" style="shape=singleArrow;whiteSpace=wrap;html=1;fillColor=#dae8fc;strokeColor=#6c8ebf;" vertex="1" parent="1">
          <mxGeometry x="1210" y="238" width="110" height="60" as="geometry" />
        </mxCell>
        <mxCell id="rS0zVbvvCvptxuWbCiOQ-31" value="Raw Data" style="text;html=1;align=center;verticalAlign=middle;whiteSpace=wrap;rounded=0;" vertex="1" parent="1">
          <mxGeometry x="390" y="370" width="60" height="30" as="geometry" />
        </mxCell>
        <mxCell id="rS0zVbvvCvptxuWbCiOQ-32" value="Cleaned, Standardized Data" style="text;html=1;align=center;verticalAlign=middle;whiteSpace=wrap;rounded=0;" vertex="1" parent="1">
          <mxGeometry x="715" y="370" width="110" height="30" as="geometry" />
        </mxCell>
        <mxCell id="rS0zVbvvCvptxuWbCiOQ-33" value="Raw Data" style="text;html=1;align=center;verticalAlign=middle;whiteSpace=wrap;rounded=0;" vertex="1" parent="1">
          <mxGeometry x="1070" y="355" width="60" height="30" as="geometry" />
        </mxCell>
        <mxCell id="rS0zVbvvCvptxuWbCiOQ-34" value="Business Ready Data" style="text;html=1;align=center;verticalAlign=middle;whiteSpace=wrap;rounded=0;" vertex="1" parent="1">
          <mxGeometry x="1045" y="400" width="110" height="30" as="geometry" />
        </mxCell>
        <mxCell id="rS0zVbvvCvptxuWbCiOQ-35" value="" style="endArrow=none;html=1;rounded=0;fillColor=#ffe6cc;strokeColor=#d79b00;" edge="1" parent="1">
          <mxGeometry width="50" height="50" relative="1" as="geometry">
            <mxPoint x="345" y="440" as="sourcePoint" />
            <mxPoint x="505" y="440" as="targetPoint" />
            <Array as="points">
              <mxPoint x="515" y="440" />
            </Array>
          </mxGeometry>
        </mxCell>
        <mxCell id="rS0zVbvvCvptxuWbCiOQ-36" value="" style="endArrow=none;html=1;rounded=0;fillColor=#f5f5f5;strokeColor=#666666;" edge="1" parent="1">
          <mxGeometry width="50" height="50" relative="1" as="geometry">
            <mxPoint x="680" y="440" as="sourcePoint" />
            <mxPoint x="840" y="440" as="targetPoint" />
            <Array as="points">
              <mxPoint x="850" y="440" />
            </Array>
          </mxGeometry>
        </mxCell>
        <mxCell id="rS0zVbvvCvptxuWbCiOQ-37" value="" style="endArrow=none;html=1;rounded=0;fillColor=#fff2cc;strokeColor=#d6b656;" edge="1" parent="1">
          <mxGeometry width="50" height="50" relative="1" as="geometry">
            <mxPoint x="1015" y="440" as="sourcePoint" />
            <mxPoint x="1175" y="440" as="targetPoint" />
            <Array as="points">
              <mxPoint x="1185" y="440" />
            </Array>
          </mxGeometry>
        </mxCell>
        <mxCell id="rS0zVbvvCvptxuWbCiOQ-38" value="&lt;b&gt;Load&lt;/b&gt;:&lt;div&gt;&lt;ul&gt;&lt;li style=&quot;&quot;&gt;Batch Processing&lt;/li&gt;&lt;li style=&quot;&quot;&gt;Full Load&lt;/li&gt;&lt;li style=&quot;&quot;&gt;Truncate &amp;amp; Insert&lt;/li&gt;&lt;/ul&gt;&lt;div&gt;No &lt;b&gt;Transformations&lt;/b&gt;&lt;/div&gt;&lt;/div&gt;&lt;div&gt;&lt;br&gt;&lt;/div&gt;&lt;div&gt;&lt;b&gt;Data Model&lt;/b&gt;: None (As-is)&lt;/div&gt;" style="text;html=1;align=left;verticalAlign=middle;whiteSpace=wrap;rounded=0;" vertex="1" parent="1">
          <mxGeometry x="360" y="480" width="160" height="230" as="geometry" />
        </mxCell>
        <mxCell id="rS0zVbvvCvptxuWbCiOQ-41" value="&lt;b&gt;Object Type&lt;/b&gt;: Tables" style="text;html=1;align=center;verticalAlign=middle;whiteSpace=wrap;rounded=0;" vertex="1" parent="1">
          <mxGeometry x="360" y="450" width="170" height="30" as="geometry" />
        </mxCell>
        <mxCell id="rS0zVbvvCvptxuWbCiOQ-42" value="&lt;b&gt;Object Type&lt;/b&gt;: Tables" style="text;html=1;align=center;verticalAlign=middle;whiteSpace=wrap;rounded=0;" vertex="1" parent="1">
          <mxGeometry x="675" y="450" width="170" height="30" as="geometry" />
        </mxCell>
        <mxCell id="rS0zVbvvCvptxuWbCiOQ-43" value="&lt;b&gt;Load&lt;/b&gt;:&lt;div&gt;&lt;ul&gt;&lt;li style=&quot;&quot;&gt;Batch Processing&lt;/li&gt;&lt;li style=&quot;&quot;&gt;Full Load&lt;/li&gt;&lt;li style=&quot;&quot;&gt;Truncate &amp;amp; Insert&lt;/li&gt;&lt;/ul&gt;&lt;div&gt;&lt;b&gt;Transformations:&lt;/b&gt;&lt;/div&gt;&lt;/div&gt;&lt;div&gt;&lt;ul&gt;&lt;li&gt;Data Cleaning&lt;/li&gt;&lt;li&gt;Data Standardization&lt;/li&gt;&lt;li&gt;Data Normalization&lt;/li&gt;&lt;li&gt;Derived Columns&lt;/li&gt;&lt;li&gt;Data Enrichment&lt;/li&gt;&lt;/ul&gt;&lt;/div&gt;&lt;div&gt;&lt;br&gt;&lt;/div&gt;&lt;div&gt;&lt;b&gt;Data Model&lt;/b&gt;: None (As-is)&lt;/div&gt;" style="text;html=1;align=left;verticalAlign=middle;whiteSpace=wrap;rounded=0;" vertex="1" parent="1">
          <mxGeometry x="680" y="480" width="165" height="230" as="geometry" />
        </mxCell>
        <mxCell id="rS0zVbvvCvptxuWbCiOQ-44" value="No&lt;b&gt; Load&lt;/b&gt;&lt;div&gt;&lt;div&gt;&lt;b&gt;Transformations:&lt;/b&gt;&lt;/div&gt;&lt;/div&gt;&lt;div&gt;&lt;ul&gt;&lt;li&gt;Data Integrations&lt;/li&gt;&lt;li&gt;Aggregations&lt;/li&gt;&lt;li&gt;Business Logics&lt;/li&gt;&lt;/ul&gt;&lt;/div&gt;&lt;div&gt;&lt;br&gt;&lt;/div&gt;&lt;div&gt;&lt;b&gt;Data Model&lt;/b&gt;:&lt;/div&gt;&lt;div&gt;&lt;ul&gt;&lt;li&gt;Star Schema&lt;/li&gt;&lt;li&gt;Flat Table&lt;/li&gt;&lt;li&gt;Aggregated Table&lt;/li&gt;&lt;/ul&gt;&lt;/div&gt;" style="text;html=1;align=left;verticalAlign=middle;whiteSpace=wrap;rounded=0;" vertex="1" parent="1">
          <mxGeometry x="1020" y="480" width="165" height="230" as="geometry" />
        </mxCell>
        <mxCell id="rS0zVbvvCvptxuWbCiOQ-45" value="&lt;b&gt;Object Type&lt;/b&gt;: Views" style="text;html=1;align=center;verticalAlign=middle;whiteSpace=wrap;rounded=0;" vertex="1" parent="1">
          <mxGeometry x="1015" y="450" width="170" height="30" as="geometry" />
        </mxCell>
        <mxCell id="rS0zVbvvCvptxuWbCiOQ-61" value="" style="sketch=0;aspect=fixed;pointerEvents=1;shadow=0;dashed=0;html=1;strokeColor=none;labelPosition=center;verticalLabelPosition=bottom;verticalAlign=top;align=center;fillColor=#00188D;shape=mxgraph.mscae.general.graph" vertex="1" parent="1">
          <mxGeometry x="1320" y="85" width="65" height="65" as="geometry" />
        </mxCell>
        <mxCell id="rS0zVbvvCvptxuWbCiOQ-62" value="" style="image;html=1;image=img/lib/clip_art/finance/Graph_128x128.png" vertex="1" parent="1">
          <mxGeometry x="1390" y="75" width="80" height="80" as="geometry" />
        </mxCell>
        <mxCell id="rS0zVbvvCvptxuWbCiOQ-63" value="BI &amp;amp; Reporting&lt;div&gt;&lt;br&gt;&lt;/div&gt;" style="text;html=1;align=center;verticalAlign=middle;whiteSpace=wrap;rounded=0;" vertex="1" parent="1">
          <mxGeometry x="1360" y="163" width="100" height="30" as="geometry" />
        </mxCell>
        <mxCell id="rS0zVbvvCvptxuWbCiOQ-64" value="" style="image;aspect=fixed;html=1;points=[];align=center;fontSize=12;image=img/lib/azure2/general/Search.svg;" vertex="1" parent="1">
          <mxGeometry x="1360" y="206" width="64" height="65" as="geometry" />
        </mxCell>
        <mxCell id="rS0zVbvvCvptxuWbCiOQ-65" value="&lt;div&gt;Ad-Hoc SQL Queries&lt;/div&gt;" style="text;html=1;align=center;verticalAlign=middle;whiteSpace=wrap;rounded=0;" vertex="1" parent="1">
          <mxGeometry x="1350" y="295" width="100" height="30" as="geometry" />
        </mxCell>
        <mxCell id="rS0zVbvvCvptxuWbCiOQ-66" value="" style="sketch=0;points=[[0,0,0],[0.25,0,0],[0.5,0,0],[0.75,0,0],[1,0,0],[0,1,0],[0.25,1,0],[0.5,1,0],[0.75,1,0],[1,1,0],[0,0.25,0],[0,0.5,0],[0,0.75,0],[1,0.25,0],[1,0.5,0],[1,0.75,0]];outlineConnect=0;fontColor=#232F3E;fillColor=#01A88D;strokeColor=#ffffff;dashed=0;verticalLabelPosition=bottom;verticalAlign=top;align=center;html=1;fontSize=12;fontStyle=0;aspect=fixed;shape=mxgraph.aws4.resourceIcon;resIcon=mxgraph.aws4.machine_learning;" vertex="1" parent="1">
          <mxGeometry x="1362" y="402" width="78" height="78" as="geometry" />
        </mxCell>
        <mxCell id="rS0zVbvvCvptxuWbCiOQ-67" value="&lt;div&gt;Machine Learning&lt;/div&gt;" style="text;html=1;align=center;verticalAlign=middle;whiteSpace=wrap;rounded=0;" vertex="1" parent="1">
          <mxGeometry x="1360" y="520" width="100" height="30" as="geometry" />
        </mxCell>
        <mxCell id="rS0zVbvvCvptxuWbCiOQ-68" value="" style="shape=image;verticalLabelPosition=bottom;labelBackgroundColor=default;verticalAlign=top;aspect=fixed;imageAspect=0;image=data:image/png,iVBORw0KGgoAAAANSUhEUgAAAIAAAACACAYAAADDPmHLAAAABHNCSVQICAgIfAhkiAAAAAlwSFlzAAADsQAAA7EB9YPtSQAAABl0RVh0U29mdHdhcmUAd3d3Lmlua3NjYXBlLm9yZ5vuPBoAACAASURBVHic7Z13fFVF+v8/z8yccxNIAoSU24AAEZFIE6SFQIDQm6CgLioqigXLuq51f6u4rq6rfgF1WcWOqOvSVJpIC1W6ihCKoQnJvTeEXkJu7j3z/P5IwoaQBAsBQ+779eIFnKnPneecec4zz5kBQoQIESJEiBAhQoQIESJEiBAhQoQIESJEiOrHnj0H7J7Dh+tf6n5cDMSl7sDviYyMjMTdu3e/JqV/tygo+OOl7s/FgC51B34PrNm4sUOYVH8xTKO/aZh+wzQ2mobZwOGwNyAifan7V5lU6yfAkiVLWq5YtWoqBa3VGuzQFh7R2qp36uTJ7lprW25ubqdL3cfKRl3qDlwKvvhibnPTpl7SGn20xZ9DcatrWrXaVDLP/v37P9Va3wlg5SXq5kWhWinABx98UDsiIvI5RvB+1mKTZaFTWpfOa8vJPlFrXn/8+PHHoqKiDl3Ujl5Eqo0N8N57H9xumOY/TdOIMwyVbRo2aRjGJtM01xqGucUwxI7IyMjdSUlJJ4vLZGVlvWia5rG4uLh/Xsq+VyaXvQK8NGlSrVqa31WGOdQ01MuGzWxhKrOFaaouhmE0MGy2bqYyuhum0c40TNMwjALTNA8ZhnnYZjPylTLj4uNjryAi/6WWpTK4rI3Af7z6ahtbXv5GS/MN2tL3jBx521NsWbdoaL+l+UshxNa07t2f7dIlJeV4eHh0MIhOGvygZekZGnq3ZVmW1lb0oUOHRl9qWSqLy/YJ8MHYsWGnjh+fYcXG9RERkTtMU7W955578gDgk+nTrwgXKt00jWNhYbaBaWlpu0uXz8zMjFLKfM4w1QjTMAq01lfa7fZTF1+SyuWyVQAASE9NVacMvCQl3Xg6ziWtutGbyDT/HWjV5oRSZjPTZr5sGqbfMMyRaWnd5gDAhg0bahk22+02w3zMMNQKm832mFLmfaap8qKjo1+41DJdaC5rBShmUfI1KZLEVEi5LRgVJZQVbKrDaxrsdIezs144OV0wHM7PVc1In81mpEnDNk2JsPebN79iFwBkZGSYdrt9oVJqVK1atXZeankuJNVCAQBgZXJrpyXVNIAmdl2+7tOV3ToMIvCXDHiFEFECHK5rRh4TdvtJqhm5TWRufSesW7/8iLTeubbY2KBSKs5ms90XFRU1mIj4Ustzoag2CgAAC9Pa1AoPqFlC4JNO6Wvf/qZbh6+IsLbjkjVjVyYnR6qwYD2CaEQCrQnoSFL2AFiJyNrHVVz8CZvDdbzAmz3ZvzNzccHx4LZOq1efvtQy/VaqlQIAwNe9WtSMDNZYQIzXQDgtJP2j/cLVV5fOx2Mhvl3d6c8EegKABeAbEAwAkSBqAGY7gH0EbGbGZmbawEQb2n69wnuxZfotVDsFAIDlfVNizYLgYsG4F5IWC+LWbRes3l6cvqFXx6ZCiHeJ6AhJ615oOUlqerr5/BU/FOdJT01VdWyBKyGoPQEdNNAejCQAPgZvAHg5WVjSKvmbH2gsfrcLStVSAQBgQ1rH5iCaAaLTYJ7cduE34wDguz6d7wdhLBEebTVv5RQA+L5fyvuSaE7zuctnllff5v5dOlnMrwDsIKYozRwOoAYzHwSQzuCvhN/8vPXSpUcvjoQ/j8vaEVQRbRet3kxE7xChhZCUymMhvu/X+S0i/MWQ6Fk8+ACgiA4QUWJZ9WQMSk3cMqDLLABTBPCOZmovgA1m5JE6UoiuJGkiiOwEekvbAr4NvTp9sb5Xp5s29WpR86IJWwHVajGoNLtqOcclnvCOJELKpjWdPyRBQ4mo49Vzlm8umY+IDpBA05LXMoYlmfDHPk3MDxLE+PBTGN5w6dL8rQO69Asy70uallEAYHnRn7EbBrapIQts3ZjoD5r5vQKOCKzv2eEtEsZrl9JuqNYKMHzaNGtTv5RnAUwnwq1E+FpLq6B0PiLkEmhA8f+3Dkm9WhRgCginhGFc22TGot3/y0t9BLCpdB1tZ2/MAzAXwNyVg5Ijw0/z9RbErWwFd63t0ekTFtbLHRauzawkUcul2k4BxbSYt2ImgJ+ICETUW7HavnVg14ytg7o8nzGoS2sAICEOCFE4BWQO6XanYlorBKZfacZ2LTn4DBAEDTJILK6ozc6zVp0I6uBsQfQREX4g4rugxZbV3Tq8sGFgmxqVKnApqq0RWJLN/bq+SJJvJ2AyEfUhUMtCfQAItIeINgI8lEi8C/CN0Lg58YslX5WuZ8fgHimANeXKL5cmlNXO9kHJkfkBGqaZRwDowkynmHmuxfwDwA+w5nDWOK6hH0xOXze3suUGQk8AAICQNI9ASJq9/Klms5a1ZmW5BOEOAfovEdUiwg2CSBDxaEG0HArHyqxH6AdIiI9LX8/o3zVly4AukwOW8AqivwsSPwqIAWFRR+JOFBgjBWEwNO7TippAYi6R+GJlt/aTv74IhmLoCQBgU69eNY0wf26zWcvOevzuHJaaSJaYT0SRRIgDUPhYKOQ7QD+fMG3J5wCwa0iPJiDezFInJU5bujNj2DBTBQ7cqDU9zMz1NfgTzTS1edtla0v6Bb7tnfycZiS0XbBqZPG1b9I6tmZLf8aMAIng4OQlG3dVluwhBShi26Cue7SNmidNW3oSAHZdn9oWEHMJYhkJNogpFxLjhcZQEI0GUJ/BAONrjeDtYPkWmC1E6hGBYzQawGPM+getxXvadmBO0VvBWXzXNyVZa/0fQ1HLFnNXHimZtjI5ORJG4E1m9GStB3ZZsWFdZcgdUoAitg9K/c6wqdTG0xYdy7y+W2/BNJ2IvhCsHoe0dklNLevNWJgJAHtuTw0z89QTmuhJZoQx+BAz6rLmtzWoO7O1mFiMa/z54h/La29DWlotqU5/rzU91GbBytnl5VuR2m4sazyqCf1Sl61bcaHlDilAEdsGp64hDvSUynYdAe8R8UeNmncd/dPWlX8i4NoGUxfdWDL/nttTw4x8YzIzhjMDzAzNnA9N3RrOXLTmfO1t6tv5E82sW89fdev58q7oeu1DmvF3i7lv9xUbVv0WOUsTMgKLICCGhO1RZp5MoHcazUi/G2PHMhijWOClknl9I/o1t/nNdcTUi0GLii4XAAhj4vmZQ7oNrqitTf1S7gJRR4QZD/6cvqUsW/86gBcFMCu9Y5um5y3wCwgpAApX/gDYAf0sAeMbzVz8AAG8Z2j3FAb/lPDZou+Awvf8rJt6PRK0gus0kEFEgwjcjojfDkiRCMaHAKKIaMbOId1uK6utjL5dWhPwChEPa/3Fz18X6Lp8/UsgTGdJc+d37Bh9QQRHNfcEFrP1u5SmglGTiP5xxefpTxdf1yTuklx49++7qadzv8aHYG5MQg9BMG9ZkCJWM/Omk6jzYNK0aQUA7th5Q/epYHzAwAfbB6fmNf1y6fTi+r67LrW2DljTwPRki7krNpbXn/TUVGWDP5Ghr7aYGxJzA4vRgDUngtHAQMGdAF69ELKHbAAAGYO63ClA7xHhB4KY1MSMmbQvzxsVsJkzEmcu6b7r+rTrBfG/AJps84f/zTl7dt6+YT3f1eC0YFC0S/x8wYGS9e0allbfCuj5zLo+s+zUdNbiHxigjP5dPrcIP7Wcs/zhM20PSzJPH6vTGtDtg5a+FqCrmfkqZvYwY5MGb2KLd2pBP1mBwL5afuFpu3Fj4ELJHlIAABkDuswioquIkFjo/qMFBF4gCD5AdpfEV7EU9zSetmgzAOwZ1v12MP0LJDo3nLbw+zLrHNY7WhT4F4FZnrKfbBvmiXhEMycX+M3bTON0J4vRjTVSmNBas/ZoppVgvZ602CSEf1PbRRvLdDZdaKq9Amwb0qOuFQj8aLNqOoMqvwOgZ5KgaBDnCcgdBLyT2KrLJBo7VgPAziGpVxOJNUR8Z6MZ6VMrqnvnkE5x/qCxnLX+lkHDmDmDgabMvE0zr2CNVTKoV7Zasjr74kh7LtXeBijwF9wJ4qVXfPWVf8fA1AwL/B0YPcCkLfDfr5qVPhNfLAFQ6Mtn0DRAj288Y2m5g79tSI+62goM9gcxlJkTGCQZ/CY0zT9N/pUdvlp7/KIJeB6qtQJ8M6xjOJ/kP4HFyM0DOg8p0PpNIsSD8AxpvVtIGgjgTBQQkfG2Zt7RpGXqs5i59Ky6tg5NcSCghkBYQzkYbAdgJZjnkZB/vHrW0t9tKHm1ngI29kp+RAgaQ0RriDCi6Md4ucW8FU9kDEsykR+z57TjZELbtzcGtg7uMoaY7iMEOzadteoEAGy7LjUBmoeyksOlsiVoIWdZJ47NOF4juLzTtKoRMVxtFWBD7xQHgbcRWBJRBAgQhH+3mLfyAQIYADb377JSS2uUZBVF4C+1VClsaUOCh0KKYcIw60e2Tzka3f+6euFNkwwAvYlowSUW7RdRbacAra1xRFhITFtJ8DPE+KhFx1UP0jyc+ejDAu+lALXXQj8nwDsBniOVctVo2+Fonb6DHZEtWikh1UkAnwHoBiD2kgn0K6mWCrCmR6ebmDklKNDCYOoA5um7arnuvKbEMm16amoYc1AANBFCCaN1WzOqZ397RIvWQhrGHqXUX4VUy4hoLwAw839RBRWg2k0Bq7p3aiygV5PgocQiCYQeEXWO31K8XLuuV8dOhi38LtZ6uHLV80f0G1wrol0nKW02SCnvl1J2llIOkVLmKKUmCCEmEVE+M48FoIjo/11aCX8Z1UoBvu7VombNgvClRDyNSKQSI5zzqZ8WQhkRdL80zAcZiLUlp8qa3XtK0+nOkFK+p5S6WQhxRd26desSkT5x4kSsYRh/llKOkVJmEdFwFE4BVxDRA5dazl9CtZkCGBDL/WFTGPokIB4n8E4w3YT4qBfl6dP3Ij5eqpQeRliH5BMqPPwzIeV79erVWwsAPl9OKhHlFm8ZFxkZmQvgidOnT79JRFOklMsAfIIquLhWbRRgaedrxwnm6zRABM7lGjWzydLb1FXNTaNzqjDqNYBS8gl/IDCxaWLiWRtBMHMEs3VOpG94ePheZk5FoRE4BsBbF0eaC0e1UIBFydf+jcEPa10Y00eGqkUt2lwne/Q8JevUBUm5G+Atmrlzy5YtXy5dnsEulLNdHBFZzPwGgEEIPQF+fyzocM3TYP1XBkC28CM6rXcYru3wE9Wo8QaT8T0zVrAW9xZYaqctjLdv3b79vmZNm75ZXD4zM9MGZrff719fum6/399UCPECM3ctDB2vejbVZa0A89u3fhTAC1rKXO6W5keHlPXSDH+je1pqOgCsXr1mCpjebdOm5QoA2Lx582hoMWX79syDTZteMQ0ADKNGM2b+oV69emc8e3l5eS7LssZqrQcKIV4jotsBjAbgvPhS/jYuWwWY277VGA36c7B9542ie/fdMMw/9evXN6s4fcWKFS215nb5+TXaFF9r3rz5f7du3WoH9Mc//rgzukmTxElCWK20lqsA4OjRo3WCQf1EQUHBzUKIN8PCwhKJ6CQAMLMAUOU2lLwsFWBOm1YjYfHV+Xff85CId0yVwvjjwBKDDwDMeBXQt3fr9r+NIQGgWbNmr23fvt0D8Ae7du3uaVlsSYnPvV7vY35/wV1SqvcLCgqS4uLiziqnta4lhNh/MeS7kFQ5o+V8fHnN1S20wNb+GzbdZ8XGFjAYQHBfyTzp6ctGMmNVcnLy6rLqaNq06TSAWzC4CYiHg/TfNABmfU1MTPQ/Sw9+EXUBHL7wElUul90TYNC3WzYXL+aQ1j4mAa1FHIB9ALBo0aJGGnoEtO5XXh2bt29vy8zPgvkgmA+AWUHrH+0uV7n7BBKRG0CV2h4GuEyeAMxMzEwAUDz4AOD3+39kZotZpwFAenq6srR+C1rf161bt2DpOjZu3NRn06bNs4VlPaK1HhsMBm8BsJKIegH4k9frnZGbm3tNOX2oB6DcD0F+r1S515bSjHv33Wh3VNSx4cOHW2WlT5/5+XJDCpff7786IiLqSSHkkT59ek4oTl+3bp1da32jlPIWKeVym832WlJS0j4A2LFj56NKkbdx48afMjP5fL6RQsjnpVQ7pZQziXhu7dq1dwNAMBjcqZQqcxeR3zNVWgHGvfFGc5sQwTFjxmwrL8/06Z/fIqWYopT8RgipatQIS7YsqxGR6qqUuElKWVcI9a5pyilt27Y9E4iZmZlpY+ZV4eHhKSVfAffv3x8eFhY2Rkr1kJSynpTyqDTUNimEMA2jQ2XLfKGpsjbA+PHjE4TGdWMeHPN8Rfm0DnwtpJmjmTsReFe+v+CAlPKIEJivtXi2a9fkMj18gUDgXinl9JKDDwBF/3+VmSccPXp0kJRiILQeBKI5F1C8i0aVVICxY8cKS2NKwBTDSqdNnDg1IiKiIEUo6q6k0QMkmjGzYmYwc0MLnNa3Z1p6RfWvycyM4oLA6GAw2L6CbBYRHWPm2sxcS2tdKV/vVjZVUgHCatS4hTXXfXzMGN/YsWPNmBh7BympuzRUDynyGjHkBoC+AVsPg5HHLNZr5umC+QbB/DgzL61ou9cap0+Ph5TvlTw8opjMzExbZGTkLYcOHfqTlLIGM78FoLYQ4oJ+tHmxqJIKwBr3QbLxf+MmfKWkjGbmTcy0CtoaNequUWdZ4p/9d9r7grE5WOC/yQiv+Tw0P7VgwYIJzPzHspTgu+++G6w1tzp06MA9Ja9nZmZGhYWF3SOEfJiZtjDzk7Vr155LRPrkyVO3GIaxuXRdVYEqZwSOGzcuPN8fOCGlnG0a8o5HHnmk3A8sP/vssyaA2CyEGjB8+NCFzEzz5s1/VQjxJyHUO5blf7Bfv35nTgJZs2aNWyljrWGogS1btvwWALZu3eowDONhqdSNQsqZkujNevXqnQnzPnXqlEMzT46MiOhVuZJXDlXOD2BZViQASYCsaPCZmQKWfluDpw0fPnQhABAR9+/f91FmfgSk7zBtYd8sW7bsKgBIT0+PAInZAL/VsmXLbzdt2nTlli1b3iEhZgDIDLPZkhLq13+05OADQDAYTGOtK7Qpfs9UuSmgQYMGh3bu2pOnwVdUlO/DKVPuUUI2DfiN60un9evXZ8L8+fM3aSE+sjRvWr58xRtSyiZg3svMGzZu/O5zACe0lm9e3bRpme7iYrTWvQ3DqLKHSlW5KQAAXvzHPz8johulMFo//vgj53yc+fb773cyhFokhbzhtttGzCuvngULFjiVMlZJKROklJBSZksppthstvEtW7Y8UF65Yvbs2RNWq1atNdHR0a1+q0yXiio3BQAAQT/NzKc0rHN22Jg0aVJ90pjJwP+VN/izZ89vOW/e/DeIaInWPE9r/oSZ85g5ihm3BIPBfhkZGeb5+lGjRmQfFG4FW2Wpkk8AAHjxpZfuESTflErc9tijj34MAK+//o7bZuN0IeSuWrUi+5d0D0+dOrWZlMZwKUV3IYxtSsn/njx5bNnw4cOt9PRla4QQi4TA/xk22wNCiAeUlIYUYoE0jHkCWNasWbOfSvfhwIED/5FSvl+3bt2FF1P2C0mVVQAAeOmll8dIpV6TQoyDqSabQnwppTwVqFkzJTIQEJCyuxKil5CqoRJyhxBqTkxM7SUlF4IWL17ciYScReDEbt26HQWAqVOnyoZXXJFiCjGYpOyqpLxaSnlaCrFVKbVZSpkhpdwupfxXXFzcVUQULL+Xv2+qtAIAwD9ffXWoEmqSlDJGSmkpKd6XUgohhRZKrbMptWTEiBHnHAsHFA507TrR66VQ43v0SJ1SVh6gcK4PBoOtiGRbKWmAlLK3lBJCiHEOh+PRypOu8qnyCgAAEyZMiNegiUqq66VUHinE3ffee3e5xl8x8+bPf04J1bpXr7RBFeVjZrFtW2YPw5CjpZStpKR0KdXdhqFaxcfHn7MzeFXislCAYsb/618dDci/SyW7Cyn+qwQ9O2rUqB1l5Z09e94NUoqXtA5eO2DAgCOl05lZfP/99x2FENdJqboqJdcTGf9p0qTRqr17949USjxSr567ZeVLVblcVgpQzMSJb3cyDLpfSjVESjlLCPXOrbfenF7s+p0588s+ypAfGkr26tu37//OAUpPd5ummSqESJVKJUsp1xtK/efQoUMLS9oNe/bunSuUWtjA7Z5QVvtVictSAYp5//33Y4nUCKXEDUJKlxTyK6VUppDib1KoEULIXMOgNkKotlLJzlLKPCnkV1LSPL/fv6p01BAAZGZmxiqldgBo1LBhw9/V+T+/hstaAUoyefJUl2nydVKJXlKqjlLKOlJKJaXaLJR4g7T+snfv3ud1/mRmZj4lhGrQuHHDey9GvyubaqMAJUlPT1dHjpy8VilKNgx5rRCynZQSSskfiORmw5CbpJR7iCjr2muvzSmeOjIzM6OYsVMI6p6a2tGvtWgmNB3TQgQ8Hk+VXA4mh8PRxhYMZu/NzfUVX4yLi4u3EcXuz8nZ4nbHJgK27KysrErf8yYxMdGWl3ciRQi9Nysr96JurLRo0aK6gGpmGPIqIcSVSslEpaSLSMYrJU0p5TEpJSkls5o0adINAJxOZ2dibgsgP9vrrXIfhgKAEuD1ASVnADgTXWMo8brWuAbAFdpSD0qr4HUAlXZoQTGnT514SQAJlqXGOR3xL3u8OUMBwOVyNRGWVSvfsrbl5uaWFZP/m0lLSzsEYEXRn7OYOnWqbN68ee2AlLUQDJ65EQKBwPdSyh2maVZZR5ACcBCEK+Pj42vm5OScio2NjQCTuzi6WsjgGyxtHgBoEBPjCJhmewDbPR7P9oTYWDszU8CUSYD8xuPxFLhc8V1hkc72+VYACAIglyuuA1miNpRam5WVdfh/dcm2RGpHdnb2jw1iYhxB4FpNeAOMg0TUwel0NhUiYMHSXS2BYBipcFwC33uRS/kQSn36VaSMlaKQF4vCxSCmOYqoPwAYhhhIxLOKM7AlX6NAoLHbbm8XVGo+MTck1pPdDsfQgBJ3BE31tWBxp9Y6wemwL4YWPQjo43LYFwJQTrv9r6zlAxDckq3g6piYmEin05kcNNQcYtEYWk90OxyjA6bZCKAYYmonmNuBOZy0boegrMPMxwRzFDPnX5qf6fKlUAGEmAoqnAKI6QYK6umlMzLxgwCezvZ6xzOJYZroAAAw09wsr/cPQnAiMXZle71PZ/l8TwCc5YqP70OExgTsDWr6TGruGxERESCtn4DQD2R7vRNs+fk3MPjpIiNqt8V4L9vnmwzQsWyf76Nadet+D0Czxi5izrt4P031QAFAdnb29y6HvbHL5XKT1vJUMJgbbp69GsqgWKH0fgDweDz7AOxzOeJTwLwfAEiTi4G9ZwoQ7SFBTmWzPRwsyP+jJMyyQKfYOnk9kXJKv94LALuPHDnmstsNlBOckpGRUQDgHIUMcWE4Ew9AhNlg6y1mLvOAZAJv46C4BgBcrriOTofjtcLrhcaCJtpChA5nsmt0AvOOgP/0n4MaE7M9vhbElMFBozsDGZZhdAQAtzs2EYQTKLQXSlJu1G6IC8cZBRAaU8Hocbqg4IuyMhpB/U8m3OFy2GeAxXjF/HbJdK/XuwLgHS6HfanTYV8Koi1ZPt8yMP2gCF+5nPapDNRnIb7SoGcYeNTlsM9gS04lxrlOFcJul90+65zrIS4tMTExkRWlJyYm2txud3ipyyo2NjaidN7o6OgoVByVVOViFkOEqFLIsi4mJibaIiIiotxut87NzS3zq9vz1Vu/fv3ax44dCwL/2371UlIsU+KxY5b3d9Kn3wNn1gLc7tgroOXDYPRjoGGJPCfBWAvghWyfr9z4d5fd3g0CI8HoAcBdImk3CPMZ4nWPx1Pm2nxR+UeJcDMDGdle38jy8v0SnE7nlQT9MBh9ASSUSDoB0BoB/H2/11ulgzp/KwIA3A7H3WzJzcwYU2rwASAChB4MdCmrArfbHe1y2OeCsASMkTh78AGgERj3E/Rmt9P+HMpbgCJ2M9AGwAU5F89lt99HrH8A4z6cPfgAEAlwTw3d+UK0VZURLru9G4MnAbARsJGJB1mMuGyvj0iqumB0B3gSEZ9z9q3T6YxhK7gSQD8AIPACJjFEqKDLHwhGSc2NmfguANvAMJjxjMth/3dlC+V0OnuBMBGACWAdGAOKZYKQMdDcg8HvMNMFO32ryuKy2790Oezsdth3n8fCL20vkMthn+ty2NnlsGun3T6mvIJtAMPliJ9SlJdddvs5hyq6HPHji9LX/lpZinE67F8V1uX4MT4+vqIj2Mu0gaoTAoSrAYAZSw8ePHiigrxnGYNuu70Piu58gF7y+HwTyyu4EQhke3PuALC+qNWXEhMTbb+t6+VDKJQJ0EtycnLK3dgJpWSqjigCjhRuqYVGv6QgEwq/ymF4ateNHpvtPe8GWUEm/RdisQAMR37eiesBfPprOn1eCEfAcAPiF8lUjNPprEFa38eEQcRwAsgjovUsxL+ys7PP+RTN7bSPZWaHgJgZFR2dfuTQoYcI6MOEoGbcKoS4kti6FQBIGk8Vr4ie2278KGK0Y6ZMj8931smgboejD4NHEdCMC59cu8H4LNvn+wSlb06How9DDyEib5bHN9Ztt3ctHC+2g+m12nXrfnn06MEUaZFPgFBs2Xd12u1/xs+IEkpKSjIBpAIAE31U5K8/Lx7PgcUAcgEAmnr8nDK/BmYqkol7uh3xD+MXRD45nc4rBestILxKQBcQEkFoweBR0NYGpzN+1LntYThAo5m41ZHDB98nwisg9CCgNzNHSFmwG6BRAI3WOjCkrHbbAAYx/QOg0SU/NCmcPu2TGfwVgBsYaAbgSgB9QZjsdNjnJCQkhJ1VGelWAI0GY5jbbu/LhMUArgcomQSSjh49msAsIy0gSQQsfgVFe+gR4RWX3b7Q6XSWuRVaMYcPH24OIBwABPMveY3SADYUdhKVFlJtBoP/AJAFAAya4HI4vna54s7bnsvlqkusFzHQkICNELqT3eszLUZDBr8DQBLoTbc7rkVZ5VmjExENJ8IrBLoeoEcBnNq//6AHwAIAIBY3llXWZ7f3QuGRM/kQlgoEAQAAB+lJREFU4sxHKj6H/XUAtwE4QaB7pGFG2/L9tQl0KwjHCOhTkJ8/tsz+AIIJE0BYzsQ3A3QbNNYZhrFPWJaXmH9SOTk5B1wuVzK0NQtAaxB6EOsNbofjMwt4yuv1nvNNnGSO46J7ShQpz8+FGF4uXEGq+0vK/RL25ub6HA5HZ8E8C4QWAPeEFt+6HPGfMsmnPR5P2Vu6svU8ADcYO/2WlZqbm3syGwB8vr0ARruc9sZgdGdLPArgXF8FYSCY7svyeiedWzc+BKEvwN3i4+PjcnJyzgpAJaIRDAaDZnqysw8BgDs+vj0D9wJgAg3P8nrnlyjysctulyB8SIQxMTExL5Rhw11JwMosj68Xzl1sWwsU+QGys7Ozsr2+dswYg8KoF2LwzQK83eWI/ztK+eQZ+N/bAvMvjRXMK6rkvF/f/ha8Xu9P2T5fGyJ+CIVbuAqAbiHWO4r8EWe9ASQkJIQV+THAgp8pM/RM4yMAAKFnOc3uz/Z63ysrwQgLm1XUDyWJbiiZFhsbG8HgwQAgmN8pvs5E9wAAA1+XGnwAgN3n+xSFAxthmmbHMpolTfp5nDv4Zyg5sEGPz/fv+vXr/ydYUPAEER4CEA7QX1wO+zVBzcOKLWoiOs5Fq7VBKWuVV3lZMCGqsA5cjJj6YJYn5w232/0JdPApZjwAIJwZz7js9tYsxE0ejycPAAoK8q4hiBoAIFhEuOz2c3YgI4FGzAAYDqfTWaO47BkYi1HOj7137958l9P+GRj3g3AjgDP+EFOpIQDXAPBjls+3rESxlKKKD5XVn6Io3qMAYoj5XIOXEPB4Diwp99dBGatt+/btOwLgSbfb/QZbwQkAbgDQVwnxAoA/AgC0zoYonAMErKsAfFdRI6V6lVi41E+ZP7/Mb6PI6n7M6XS+Lth6nUHXgTBQQD8H4DEAIC2cxaYig98uy2zkEhEKwWAwEsVPsyJIoMLdwoXGh5pwPwGd3W63KysrK7uovRFUWP+7KBkHQXAU/kUjQBhRUd1MHHXuRXhwnlfdcpdbizo33GW3fwHCIIDHREdHP3P48OHjWTk5GS6H/TCAaAb1xM98nStc/uVrCvumf7PD55dSNPdf73LYZwPox4yHnE7ns+fcycA4ZlToJdRalxWeVmHI2n6fb73TYc8gIIktaxiACQmxsfYAkAagwGKeXKpI0f7HvEAzVXiTicL1mtKFK/KBADj/ejuz4DeIaRAAFW4YzQCsAaAZNJPAd4FxY4OYmKd/OnjwvI6AcJvtToDDALCwuMKj1ysRTYyJTOiHQldxUwDfEpBbfOtJxvv7fL6MSmm90Bh8BcQ3ApgQVOJGFNojn5c2DAEcAJAApu89Pt+TldGdn7NFzBlXKkt55n2fhHgFhACA8KCh3sN5lKleXFxjAj9XWBjT9h84UOnfGZQHl5BJWlYBAOQHg9+iaP7WRMmV1bZpWR8DCILR3uFwNGDQHwCASbxzTmbCusI0rrT+CJfDPtnpdJa5AtcGMEhT8T48R+rUqbOlOC07O/tHBopPyezrsttn2O32Mo9OredwdNFCLGcgCkAuQzx2QaUohdMR/7HL5WpSVlpSUpLJhOLDHXP35+RsB4CiV6gvAYDBf20QE+Moq7zL5WpSnpw/h725uT4Q5gMgAQwF0JaAPR6PZ1HpvAz+uPBflOx2OMq0ARISEsLO57epCAWgD7G+1eWI/wZES6CxmwVLYiT4iG4GozEAMOOvpT1+Ho/vFbfdXo8JD4AwSBIyXU77F8T8HUPkE7GDGT00uHORUXUQmgd5cjwV+Q4SXU57udNDeI2IW3fu3OkvLx0ACOgPbf3B7bCvBCGdC2VSxGh47PChP1DRkjeB/oISVjtJ60m2ZG8A7qAh17sd8a8Q0zfMnK8lGpGmwdDWHwBcg2KP5q+AmD5k8ACAHwEgGPQeyghS8Xhy5jgd9vkE9GHwZJfD3hmCp0uLfExUVwMpAX/+3WB8BuDbX9MXhUKPWRxAyWAkgwDiM+YwCDiuGU+Xs9jDWT7fg25n/CZmehGMWAAjGTQS4JJWswZhhqXxuC8nZ+95+hQNxjmvPMXk5eXdfn6xKAtAbQZSwEgpKVPRuscxMD2R5fWe9djNysrd6XQ6+xD0NDC5GJjABIAIxCg0yQi7tKV/0+FQYTVrzjl96uQhAPUABIUKfFBOVs73F9wYHmZ+CkZ/APdC070WnZEEAPIF0a/eppYASKfT2RFadxRAfQYagFBQ6LGjdbb8/Fm7jxw5dr6KYmNjI0wp+xDQlQlOAH0A1ABwQFi60/nmfJcrriNp2fx87WR5ve+jAsdGEaqew9HJIu5wRiZGPjO8gmhtnt8/+/Dhw8fLKxwfH19TStxImjqDEA/CKQL2ssXL7Tk5X2/E2W8ILrt9OBHVZmGtzc4+8LO2jHE6nb0EcwKAg1leb5mh+CVx2+2pTBhI4EaAIA3kErAxYFmfHzhwIOes/rhcrUjrdsx8JNvnm1ZRvZX2ebjTGdeTWMwGYANjsT8YHHKe5eYQl4BK2yjS4zmwkImHgxAAoYfNMDY6nc5eOFvpqn1AxqWm0jeIcNvt/ZjwMYA6RZdyAewHEAHQpGyvd1xl9yFE+VT6VrFZPt+8oOY2IMxFoaUbi0IrugmYK10BQ1TMRR0At9vt4kCgNQnhAHAwyLzS5/P96tepECFChAgRIkSIECFChAgRIkSIECFChAgRIsR5+f8b70E7GGImYQAAAABJRU5ErkJggg==;" vertex="1" parent="1">
          <mxGeometry x="290" y="5" width="75" height="75" as="geometry" />
        </mxCell>
        <mxCell id="rS0zVbvvCvptxuWbCiOQ-69" value="" style="shape=image;verticalLabelPosition=bottom;labelBackgroundColor=default;verticalAlign=top;aspect=fixed;imageAspect=0;image=data:image/png,iVBORw0KGgoAAAANSUhEUgAAAIAAAACACAYAAADDPmHLAAAABHNCSVQICAgIfAhkiAAAAAlwSFlzAAADsQAAA7EB9YPtSQAAABl0RVh0U29mdHdhcmUAd3d3Lmlua3NjYXBlLm9yZ5vuPBoAACAASURBVHic7X1peBzVlfZ7qhetLVm2Wq2qlm1hhG3AfCwDNsYGvABhzRBgIAlLhsmwLyYkARKzL8EsZk0CgS/JJDbrhOUDbIODbTDeIIwxAQNesGVLXaVWy5KtVqul7qq686NbprbeW2q1Pr/Pox91qurcq76n7nLOe88FDuAADuAADuAADuD/R1ChKzBUqK2tdTmdzrMBzCaioxhjjQBGxW/vZYztJKLPAayMRCJLOjo6ggWr7BBixBvA+PHj+UgkcicRXQagPM3XegG8yHHcQ62trdsHsXoFx4g1gKamppLe3t75AG4GUJGlmiiAx8rLy+/avn17f/5qN3wwIg1AEIRaAK8BOClPKtdHo9HzAoFAW570DRuMOAPweDxTbDbbUgBjjfcqS3k01s3F+NpZcJU1oLK0HgDQ09eG7nALdgc+wM7ACoT6LNt5t6IoZ/n9/i8H9z8YWowoA6irq/PY7fZ/wND4FSUeHHvwdZgsXACOsyfVwZiKHe3LsX7rQwiGfcbbu2VZntre3u7Pb80LhxFjAI2NjaWRSGQlgOk6uXsu5h7xKJz2zKYBETmEFV/8HM2BlcZba8vLy+eOlDmBrdAVyBfKy8vvBHCxVnbEuEsxZ8oC2G0lGeuzcU401Z+JPnkv2vf9U3trnCzLtmAwuCK3Gg8PjIgeYPz48Xw0Gt0GzWy/0T0Xpx/1OxBxOelmTMW7m6419gQRRVEO9fv9O3JSPgyQ268zTBCJRO6EpvErSjyYe8SjOTc+ABBxmHvEoyh3urVip91uvzVn5cMARW8Abre7kogu0cqOa7ox4zE/GZz2ShzXdINOxhi72O12V+atkAKh6A3A4XCcA2B/Q1SW8pgknJf3ciYLF6CixKMVVTidzjPzXtAQo+gNAMBs7UVj3VxwlP+5LcfZ0Vg3VydTVXVO3gsaYhS9ARDRUdrrcbUnD1pZ492zkpZdjCh6A2CMHaS9ri4fP2hlVZWNM4oOsnqumFD0BgCgSntR4awbtIIqS+qNoupBK2yIkNwvmgRJ4usygE7GmI+IPgGwBsDboij25qXGZqjaCwY2SMVY6pYHrbAhQsYGYBVfZ0z3wzgAeInIC2AqgOsBBL1e70uMsQdEUdydh3prsRfA/k+zNxLI6xJQi1C/KQTQPigFDSHSHgKamppKBEG4NxqNbiOiq5E+uQIAXIyxKwFs8Xq9Dxx++OHOjGuaGDpv3L7eXXlUrUd32GS7RR8eTssA3G53fW9v7yoAdyB7cgUAlDLGft3V1bW2vr6+MQc9AACPxzMBBnf27sAHuapNiF2BVbprxtiGQStsiJByCEgWXy+tqkf95NlwH3ISykd5UVYV64nD3W3o7WpF+7bV8G9Zhb5uU9d5LMdxHwmCcKooit9kUuFx48bVRKPRC+PevxkwGMDOwArMmDQ/Zdg3U6iqjOZ2fWSQ4zhTqLDYkDQY5Ha76x0OxycwNH6pqw6HzLoWY486F8Qld7qoqozWz97E1g9/j/5gwHi7jYiO8/l8rcl0HH744c6urq4ziOhSxtjZAJKG904+7D4c1nBR0nplis0tL2H113dpRfsURfH6/f5QXgsaYiQ0gETxdc+kWTjqBwtgL8lsJJD7Q/js9dvQvvUDfQWI/uFwOE5qbm7uM77T0NAwTVXVSwFcBKA23bLKS+rwoxnv5W0yGJF78NLa76G3X2fAj4qi+Mu8FFBAJPx8reLrjVN/jCPPvR82e+bxdc7uhDDldETD+7DXp2NVeRVFkYPB4IcAUF9f31hdXX2Dy+V6njF2K2IriUQTTgZgDRE9BeBkxIe0qBJCV882NNWfCaLcIt6MqVj++Q3oCH6lFfcBuCQYDHbnpHwYwNIAxo8fz6uq+hKA/bN1z6RZOPLc+3MKsRIR3E0zsE/6BqE9zdpb06qqqnpdLtfDRLQQwBwAY5Ko2kpET6qq+lNJkh4PBoPrKysry4hoPwl0b+9O9Ml7MW7MiVkbAWMq1nxzH7a1vW28dYcoikuzUjrMYPnL8Dz/THypByA25p983VsZd/uJEO3vwYe/PQf9PR2ZvNYB4BWO4xa1trZ+bLwZnyesB3CMVj7ePRunHLEQTntmkduI3IP3/3kzdnV8YLz1lSiKR2IEOIEAix7A7XZX2my2v0Lz9R92+i2oaTgyf4XanbCXVKB964epHu0H8C4R3V5TU3Pljh073u7u7jYxNQEgEAgoVVVVSwFcCI17eF9vM772vQobOeGumpKyB1NVGV/7XsV7m0zd/gBGV1ZWbu/p6fmn1c1ig6kHEAThRwBeHLgurarHnHnvppztZwpVlbHqie+hL2hypjEAaxljix0Ox6u7d+/uykRvfNm6HABvvFdR4kFj3Rw0uufEaOElsUd6+iV0h1uwK7AKze0rrTx+RsgALhFF8ZVM6jYcYbVY1sXX6yfPznvjA7H4umfyHOz6x8ta8XpFUS7JhWvn9/u/FATheQB3Gu+F+v3Y3PISNre8lKnarwBMxHe/lx3AYkEQUOxGYOoPjTFud9OJg1Z43SEm3SxXomVDQ8MhAPK1POsD8Kv4mH8J9OP+gBHk1+EwxDAZgDG+XjHaFAPPG8prTM7FCTmqJMbY8wDKNLIOAL8DkMmSbR+ARwBMFEVxAQA5/qWPOCOwGgJ08fWSyrT9Lxmj1GWK3Y+yei5d8Dx/JWNMRwlijP1MkqTFHo/nVo7jTiOiUwEcBeBgxOL5CgA/gDbG2AaO41bKsrzKysMniuIrgiAAwGKMkOEgvw7zDJHP+PrYsWMFRVEWaGVEtEwUxcUAEG/QN+J/WUMUxVe8Xq/CGHsJeiN4ged5hyRJi3PRP9SwWhPpusoM1+oZwRgbIKKs4+uKojwLfQ8SZIxdnej5XODz+f4G83BgI6I/F9twYDUH0E3CQp355m98h96uFmPZWcXXBUH4IYBzDOJfDQL5ZD9GypzAahXwufa6fdvqQSu8fatedzbx9XgugCcN4jWiKD6TQ9XSwkgwAqshQBfj9m9ZBVXNv9dTVWX4t+gJFjabLeMNl0T0OADtbLIPwH/CwBUcLBS7EZgMIBKJLEEsRw4AoK/bj9bP3sx7wS0bXzd5ARljM0aPHl2V4BUTGhoazmSM6baFMcbuFUVxS56qmRaK2Qgsg0FxT9p/DlyXuNyYdd3beQsGyfFgUJ/1BLOTiJ4Ih8NPdnZ2Jly7x1nJm6Enq2wSRfE4WKwmPB5Phd1uPzO+m+cYIhqP2DLQhjxlCYs3tnaJCAxzt7GlATQ0NDSpqvoVYgxfAEDdxFk49odP5mW79acv3ZDO3CKpIQiC8DsA12pEMoBpoihu1D7n8XgmcBz3SyL6CfQOomTIOktYsRmBpZO/u7u70+VyVQCYOSAL7WlGNLwP7qYZOcXXNy97EOIXS4y3ZJiHozIAs+12+1VVVVUlDodjUzgc7gcAnudPJKLfQm/Aj4iiuGjgoqGhoayiouJujuNeJKJp0BhzGnAAOIYxdo3L5arweDwfdXZ2Kum8GAwGN7tcrq0AztX8TxyAc10u19ZgMLg5g3oMOhJGeTwez0fRaHQONF3sXt+X2Cd9jbqJJ8Fmz4zZLff3YOOrN1s1/gZVVY/lOC4I4EiYv1KdIZSXl3/DcdwbALQb9rdyHPej7u5uGYixigD8nYguTPY/pgEbgJnRaHROWVnZklAolBb/r5iMIOmnHE+69AkAXUCgpLIWE2ddi4ajf5CSfauqMlo2vo7tHz5jNeZLHMcd19ra6gOA0aNHV5WVlc1jjN0EYHQClVHov2aVMTZbkqTVwP5w8AroVwax/8dZgpmj3Ti+ZjT4kjLUOWPUtvZIP8S+MDbs3YM1nR0IRCzT/2ScJawYhoOUfXn8B10CgxEAMV++Z9JseCadjLJqL0qrY7Twvn1t6N3bivatcVq4OeYPALuI6DSfz7fVeCNNQwAAMMb+IEnS1QAwduzYgxVFWQtAt5G/1lmCyxsacUYdD1uK4UthDEvbJfy5ZSf2RCPG2xlnCRvuRpDWYB7vCV5DjIefD/QS0aRUdPA0DaGTiB6XZfk5m822DAZK2IyaWtx+yKEot2UW9uhVZNy37Sus69pjvJVxlrBsjCC+ypkNYC5ixFgesWHPgTzmNk57NtfU1FQSDofvYoz9HBq6WLZgjF0mSdKi1E/GDKG0tPRNGMgqBsgwBLfOr2/A9Y1N4LKctKqM4enm7Xi9TW+nRPSgz+f7dSa60jWC+vr6RiK6kYh+CkNkNgmyXrVk/Mt4PJ4Jdrv9VsbYxUh/m1gQsX10h2hkUl9f3+Rka/0BeL3eiYyxTUh/GYcZNbW4f9KUrBt/ACpjmL/lC2NPkFWWsBRG8JrX672VMXYHUmx8SYKMcxtn/eu43e5Kp9N5pqqqc+IsooMQi8YxxAgVOwB8RkQrZVleBqDOZrNthqYRGWOPSZL081R1FAThA+jz/nYA+D1iO49NQ0OtswSLjpqacbefCCFZxiWbPkanZk5ARM/5fL6rMtWVxAi2ATg017rGsU6W5fPSmasMaZ5AQRDuBqDdXxVVVfWotrY2S/otAHi93msYY783iC8WRfHF+BzhVsaYrju+5eDJOKvOxAnNCW/5RSzcofMwh6LRaH0gEOjJVFcCIzCBr7PjlJmVmH18Bby8A3xd7HGpXUarGMWqDSG8v6YHbQHLWE1aq5YhNYCGhoayuIexUSNeKYriXKvnBUEYC+BL6MfCJaIonq3ReaaqqvudC3XOErx8zPSUs/1MoTCGCzeuR4dmiUhEF/l8vlez0ZfMCDy1dsy7fAzOP6MKNlvy/0NWGF5b2o0n/7wH7XtMhpBy1TKkKWJaW1vDAH5mEM/xer0XJnjlGegbvxvANdoHFEU5RXs9c7Q7740PADYizKzR0+NyyRJWU1PzBmLdvg5zZ1TivUWNuPDs6pSNDwB2G+Gic6qxfHEj5pxgmpKNs9vtrzU1NSWcUwx5jiBRFN8E8J5Wxhh71OPx6GovCMKPAZyllRHRbaIothhkx2uvp41K6jbICdNH63er5ZIlrLOz804YxvzLzh+FZ+7nUVmeebNUlnN49gEBl55nolXOCIfDd1m9AxQoSRQR3QhA62UZa7fb5w9c1NfXu2Emeaz2+Xx/sNClc/p4y9JeKGQMocSkO6ssYfGlnm7yO3dGJW6/3g2Oy7734jjCHTe4TT0BY+zn8WQa5neyLi0HxL1/j2tljLGb45x+cBz3BPTbwcNEdAUsSB6MMZ0BjHHkM/uMHrVOk+6ssoRxHPcLAKUD155aOxbeXp9T43+nm7Dw9nq4R+tCIAlzGxcsTVw0Gr0fgNbDUsIYe9Lr9Z4N4MeGx++xchnHMXhpwVKjRBCEdV6vd5EgCHfxPH+J1+ud7vF4EuaqEwShHMBPtLJ5/zEmq24/EVwVNsy7XD9cJcptXDBaeCAQ6BEE4ZcA9u/TYoydAbO7eaMoiguTqPJDkyt4TzSSt/W/ER0RU2wAAKYzxqYDse3vjDHYbDYIghAE8C0RfcsY+5Yx9i3Hcd+qqtpERPvry9fZcf7paZOg0sYFZ1Xj6b90wt+xf2UwkNtYt2opaKJIURRfZox9YBBrfw0ZMWZSMlKijknsC4fzUzkLiP0Z6XYBOIoxdj6AW4joD4yx94noWe1Dp8ysTGu2nynsNsIpM/UfvNWqpeCZQlVVvQEJGpiIHhFF8bMUKnT3N+w1BW/yhnWd+d8jMWva4OQ0BIDZ0/W6rVYtBTcAv9//ZZzdY8QWh8Nxb6r3OY5bpr1e09kBheV/WqAwhrXmyOAVRHQKY+wqAA8T0WsANiEW+0gL47yZEJUyw1jBpNu0aino1rABMMasAhdbrRJHWWAVYtGwcgAIRPqxtF3COR4hn1XEEr+o8wIC6Kqpqfnr5s2bIwBMdHaPx1Nnt9sPVlX1YCI6mIiaGGMHw5B0yz1m8JrAU2vSbVq1FNwABEE4BoBVQOgcnudPlyTp3WTvt7a2hr1e7/OMsXkDsj+37MTc2rr8BYMUBf/lM2UgXRRvfEv4/f52xFLJrtfKBUHoQW7JNvOKQg8BdgB/RAJDJKIn00kry3Hcw4htCAEQWwnct+0rqHkYClTGcO/Wzdij//pDDodjQaJ3UkBHjwqY/fd5g2YFMIB9RkFBDYDn+V8itlVbC62zZ2JXV9fNqfS0tLSIjLFHtbJ1XXvwdPP2nIxAZQxPNW+zmlg+smvXLilLtbrAzG5fNEs1qdEimnSb+AsFMwBBECYRkTGNywuMsecMsvler7chlT5Jku4BsFYre72tFb/e8gVCcuZfWUhR8KtvvsAbbaacVGtFUXwgY4Xf4RPtxaoNg5dodOU6faSaMfa58ZlCGQAH4P9C4w4FEABwk81mmw9A+8lVGr/uBJAB/AiA7stc37UHl2z6GG/5xbRWBwpjeKvNh0s3fWz15e+Ol5F1v01Ef9dev7+mB7KS/1WLrDCsWKs3Lo7jTJPVgpwcKgjCNTCEdQFcIYriJ93d3eHKysq9RKTd7j2lqqpqdTAYbE6mNxgMdldXV/8/xtj3ockVEFYVrO/agyXtEnx9vSDioDAVJZwNMmMQ+8P4JhTEq2ILHtu5FSv2tCOsmPaBtNpsttk+ny9pHVKhtLRUtNlsNyBO++rpVcG7HZgyqTTFm5nhlXf24e0VutVoj6IoV4VCId24MOQnh8ZJHpsR85QN4G1RFL+vueYEQfgEwL8MCIjoS5/PdzTS+Pq8Xm8DY+wNAMfmqdprieiHqVjM6YLn+YVEtH9uUzfGjuWLG/MWD+gJqTj10mbdBDMRhW3IhwDG2LPQN/4+IrrW8JhKRNdDE+hhjE3hef76dMrw+XytoihOB3AbNKuDLBACcJcoirPy1fgAwHHc49CEw9v3yLj5PgmqmodVi8pw072ScXXRL8uy5aol6x4gyZlBKmLMne0ANjHG3pdleXkgEOjhef5iItLl0GGMXS1JkinODwCCIPwJwOUa0b5oNDo5EAiknUmE5/nxcQP7KZLnH9aiE8Bih8OxIIfZflJ4vd47GGM6T+el543CHTdkzwlQVYZ7nwpg8Rt7dXIi+o3P55tv9U7GJVmdGZQGggAWIZbGdX+cn4g+9Pl8s5EgpOvxeOpsNtsW6HP//EUUxX/PtN5xPuKpAKYT0XRjNjEAqwH8A8BHNTU1y5I5efIEO8/za4loqlY4e3oFHrujHq6KzKZnPSEVN90r4QPzqmJNTU3N3ET/T0YbQ3p7e+cDuBn58WSFOY47srW11cSL00IQhBuhZwcxADNFUVyXS+GCIOiMThTFIZ0PeTyeinhK2xOM99yjY/H8C86qhj0NUuh/L9mHp/6r08qptEtRlKlxr6Ql0vqn4yeHvA6DHztH3CuKYkKumgZ2QRA2AjhCI/ssnggirS3bViikAcQP43gHsW1fCeGptWPujArMPaHSTAuXoli5rgcr1oasPH4AsFtV1TPb2tqS7kROd3Oo5ZlBOfLWJUVRTktnty3P8ycR0Qfa+hLRtT6fL+tEUIUygHha+9dhILwiNlnN11pwjaIo5yf78geQ1ZlBeeStS4yx6ZIkpTzrTRCEF6CninUCmCSKYlZB+gIZgI3n+ZeJ6AKD/H8AnM4Yu4KI7kAGW+AMiBDRo6NGjbon3TlMwmVgY2Njabzb1zV+nnnrPBG9mU7Ax2az/RL6OPtoIsrFJTvU4Hie/5NF439BRN8TRbFDkqQHGWOHAliI2IGY6aKHiJ5TFGWyz+ebn8kENqMzgy47fxQevs2DEmfm7gOng3DWHBf2BlX882vd0ry+v7/fFgwGkx7B1t3dHXS5XDKAUzXioysrK5f29PSImdbH5XLdrb0OBoP3ZKojAxDP87+P7/jVYms0Gp3b1ta2P2VqT0/PvmAwuLy8vPy3HMd9TER+xJbWKmK7shlirvIvGWPvcBz3sKIoV0mS9HooFMrEaGIVsxKOHz+ej0aj26CZ7Z98fAWe+42QM39NVRmuuV3CirW6QEXEZrMd1tLS8m2yd+Pj5+cAJmvEn4qiOA0Z5gUcyiFAEISHANxiELeoqnpSW1tb82CVmw4sP+VIJHInNI3vqbXjybv4vJAXOY7w6HyPibcuy/IvUr0b79puNIiPFQThJ1bPDwcIgnAPzI3vUxRlVqEbH7AwgNraWlfcybMfQ8FbJ6JLamtrXQle2Q9RFP9ORK8bxAsaGxtzSjU/GBAE4RaYTy5pZ4ydmuvBGPmCqVXj7t39Hr7B5K0bOGuVDofjtHTeVVX1ZmiymQKoi0QigzmGZwxBEK4D8JBB3EVEp0mS9HUh6mQFq89al4ZlKHnr0E/wEkKSpF1EZAxuXNvQ0PB/8lK5HCEIwuUAnjaIgxzHneHz+UykjEIi5ZlBQ8xbT7sBHQ7HIwC0k0a7qqpPowAhbi3i+/6fN9SjlzF2ttV5h4VGyjODhpi3nvaZQc3NzX1EdJNBfFL82LuCQBCE7yMW9NLOcPsB/GAgj+Fwg9UQoBvw68zc8ryh3m3SndFEzufzvQPAmHp0YSYZx/MFQRBOAfAK9EksFSK6VBTF5UNdn3SRcmo/CJts9sOCAJExRdZms82DnvRRX1paahn7HiwIgnACYmcRaX35KoDLfD7ffw9lXTJFyjODBpO33r5HH8zL5syglpaWbxljxt3DNwmCMNnyhTyjoaFhKoBl0OxQRsxbd4Uoii9avzV8kPLMoKHkrWd7ZhAR/QYxxu4AnACeyr5m6cHr9R6pquoymBM63iiK4p8Gu/x8IOWZQUPMW8/4zCAAEEWx15hyBcCpPM+fn23dUkEQhMmMseUw5ym8TRRFq82uwxIpzwwaSt56NmcGDSB+lNv7WhkRLYxn5EBjY2OpIAjnCoLwkNfr/cD4viAIq3mef4zn+fMaGxuTxuXj+Xbehzkj+X2iKBqdP8MapmhgSUnJrvjEygEMKW8dAHY5HI5PBw6GyBSVlZWfEtGV+O7/GgWgxuVyzVEU5a+IEUxnQJ+ncADjiWg6EV2kKMp1LpdrbHV19efd3d26Snq93gYiWgVD9vR41tNfZVPvQsJkAL29vRGXy3UQNFm3v9zSj4vOqYbTkR8fS09IxfV3SegNmwJ4J8YPhnBqTwhJW29PT4fL5aqCnmd3XPw6XQIrECNkTGWMXe1yuUomTpy4VpIkta6uzsNx3CoATdqHGWPPSpI0z1rV8IYlH6C6uvprxtg1A/dDYRVbd/bjrDmurI+LGYCqMlx3p4SvtiVs2zIAc7I1hJKSkg02m+0n0O89yBYOACf39PTMraqq+p/4SSWHaR9gjP1VkqQrUdhkVVkjYWsKgrAAgC612GDx1mGR6l2DTiJ6LBwOP51OZnGPx3OQzWZbA8CUIaLcXQfv9BPBTz0BFR4e5e7YEN4baEeoTYT4yXr41q9GuCNgfNUSjLG/SZL0Q+RATi00ErZknAa+Egba8iDw1j9VFOUsu91+FWPsZwBqEqjoJKLH+vv7n0p0OMLYsWMFVVU/YozpXMplY9yYculPcdBpZ4K45PVWFRk7ly/F5kV/RDh5TqAlNTU15w3B/oFBRVZnBuWRty6qqjpjgBgxYcKE6v7+/htTGMIeInrcwhDsgiCsh2E/oPf4mZh2y11wlGcyBQCivb3Y8NDdED9ea3V7hdPpPDvNFDbDGjmdGZQjb72NMTbHKjY+YcKE6r6+vnkAbkISQ2CMPRaNRp/u6OgICoLwCwCPaB845F8vwNFXzQNx2ZFZmKris2efwLa3XtPLGbtfkqQ7slI6zFCoM4M2AjjXmPjZiAwM4Vki+hk0M33v8TMx484Hs278ATBVxZp7bjP2BGFVVQ8bDpSuXJHWQB4KhUIej+cFWZZtAKal+54FIgAecDqdl7e0tHSmerirq6s/GAx+6Ha7n5VlOYxYOhkjZ76ciE6CJgpXNsaNWQ89DZs5t2/GICIIU0/AzveXQv4uCaWDiEqCwaDpEMRiQ9oN2dnZqQSDwRXl5eUv2my2MsSYuen+wiEAzyuKcnFbW9sbe/fuzSjCZDCEPsQMIaFn6uirbkTtoVMyKSIpbE4nHGXlxl5gosvleioYDA5esGQIMBhnBqkAugDsArCRMbaSiJaJotibTF8miA8NNyE2NOg4BOXuOpz9l7+lnO1nClWR8c5lFyC857slIhH9W9wFXbTImu0RPyvnVRiSDw8FduzYsQ/APY2NjU9GIpG3AJw4cM87/cS8Nz4AcDY7vNNPxPZ3dITkmQCK2gAKnScwJzQ3N++FYRjjj8vnBmY9hKl63YyxaYNW2BChqA0gjoO1F5VCyoxyWaOC9xpF+c1HWwCMBAPQzQHKRtcmei5nlNeazoFwWz1XTBgJBqCbyLJBJDEy1RS9LPrfr+j/ARg4jH3mlO55g0VswJR7t9hQ9AZg5DD2iHnL5mZCSDKljR0W+/tyQdEbgJHDKH6yPtGjOUP8WJ+Xyir3brGh6A0ABg6jb/1qqEr+qeyqIsO3YY1OZpV7t9hQ9AYQjUbfAbCfXhzuCGDn8qV5L2fnu+/ovIAAQpFIZFmi54sFRW8AcY/ky1rZ5kV/RLQ3b55nRHtD2PyCnuZPRC9kc3L4cEPRGwAAcBz3EDTbysKdHdjw0N1Wy7aMwVQV6xfcjXCnbnWRMPdusaEg6eLzje7u7k6Xy1WBmG8eABD0tSAS7Eb9v0zLmsjKVBUbn3kCu1fp93YS0cOSJL2W4LWiwogwAADweDwfRaPROdCktevc8jW6tm+BMHVGxtyAaG8Ia++/3dT4iOXe/Y9AIFC0RFAtCppMId9IxGEsqarGYT/+dzSdcx64FCeJqYqMne8twZeL/4i+TvOJIbIsT21vb/dbvVuMGFEGACTnMJaNccN7/EwIx8+I08JjB4/3BvwxWvjH6+DbsMY42x9AWrl3iw0jzgAAQBCEWiL6m0VK+GyxTpbl80bSlz+AEbEKMEIUxY6ysrLvEdGD0JzMkQUiRPSbmpqa2SOx8YER2gNo4fF4bPL0qgAAAExJREFUJtjt9lsZYxcj/XMOeojoRVmWF/j9/p2DWb9CY8QbwACScBiBWGLmnYyxzziOWynL8lK/3z94iREO4AAO4AAO4AAO4AAKjP8F2TdjEq1GmWEAAAAASUVORK5CYII=;" vertex="1" parent="1">
          <mxGeometry x="1373" y="343" width="54" height="54" as="geometry" />
        </mxCell>
      </root>
    </mxGraphModel>
  </diagram>
</mxfile>
